<svg width="139" height="42" viewBox="0 0 139 42" fill="none" xmlns="http://www.w3.org/2000/svg">
<path d="M59.924 25.332C59.684 25.332 59.564 25.212 59.564 24.972C59.564 24.732 59.684 24.612 59.924 24.612C60.164 24.612 60.284 24.732 60.284 24.972C60.284 25.212 60.164 25.332 59.924 25.332ZM59.924 26.808C59.684 26.808 59.564 26.688 59.564 26.448C59.564 26.208 59.684 26.088 59.924 26.088C60.164 26.088 60.284 26.208 60.284 26.448C60.284 26.688 60.164 26.808 59.924 26.808ZM59.924 28.284C59.684 28.284 59.564 28.164 59.564 27.924C59.564 27.684 59.684 27.564 59.924 27.564C60.164 27.564 60.284 27.684 60.284 27.924C60.284 28.164 60.164 28.284 59.924 28.284ZM59.924 29.76C59.684 29.76 59.564 29.64 59.564 29.4C59.564 29.16 59.684 29.04 59.924 29.04C60.164 29.04 60.284 29.16 60.284 29.4C60.284 29.64 60.164 29.76 59.924 29.76ZM59.924 13.884C59.684 13.884 59.564 13.764 59.564 13.524C59.564 13.284 59.684 13.164 59.924 13.164C60.164 13.164 60.284 13.284 60.284 13.524C60.284 13.764 60.164 13.884 59.924 13.884ZM59.924 15.288C59.684 15.288 59.564 15.168 59.564 14.928C59.564 14.688 59.684 14.568 59.924 14.568C60.164 14.568 60.284 14.688 60.284 14.928C60.284 15.168 60.164 15.288 59.924 15.288ZM59.924 16.836C59.684 16.836 59.564 16.716 59.564 16.476C59.564 16.236 59.684 16.116 59.924 16.116C60.164 16.116 60.284 16.236 60.284 16.476C60.284 16.716 60.164 16.836 59.924 16.836ZM59.924 19.716C59.684 19.716 59.564 19.596 59.564 19.356C59.564 19.116 59.684 18.996 59.924 18.996C60.164 18.996 60.284 19.116 60.284 19.356C60.284 19.596 60.164 19.716 59.924 19.716ZM59.924 21.048C59.684 21.048 59.564 20.928 59.564 20.688C59.564 20.448 59.684 20.328 59.924 20.328C60.164 20.328 60.284 20.448 60.284 20.688C60.284 20.928 60.164 21.048 59.924 21.048ZM59.924 22.488C59.684 22.488 59.564 22.368 59.564 22.128C59.564 21.888 59.684 21.768 59.924 21.768C60.164 21.768 60.284 21.888 60.284 22.128C60.284 22.368 60.164 22.488 59.924 22.488ZM59.924 23.928C59.684 23.928 59.564 23.808 59.564 23.568C59.564 23.328 59.684 23.208 59.924 23.208C60.164 23.208 60.284 23.328 60.284 23.568C60.284 23.808 60.164 23.928 59.924 23.928ZM59.924 8.34C59.684 8.34 59.564 8.22 59.564 7.98C59.564 7.74 59.684 7.62 59.924 7.62C60.164 7.62 60.284 7.74 60.284 7.98C60.284 8.22 60.164 8.34 59.924 8.34ZM59.924 9.78C59.684 9.78 59.564 9.66 59.564 9.42C59.564 9.18 59.684 9.06 59.924 9.06C60.164 9.06 60.284 9.18 60.284 9.42C60.284 9.66 60.164 9.78 59.924 9.78ZM59.924 11.148C59.684 11.148 59.564 11.028 59.564 10.788C59.564 10.548 59.684 10.428 59.924 10.428C60.164 10.428 60.284 10.548 60.284 10.788C60.284 11.028 60.164 11.148 59.924 11.148ZM59.924 12.444C59.684 12.444 59.564 12.324 59.564 12.084C59.564 11.844 59.684 11.724 59.924 11.724C60.164 11.724 60.284 11.844 60.284 12.084C60.284 12.324 60.164 12.444 59.924 12.444ZM59.924 18.276C59.684 18.276 59.564 18.156 59.564 17.916C59.564 17.676 59.684 17.556 59.924 17.556C60.164 17.556 60.284 17.676 60.284 17.916C60.284 18.156 60.164 18.276 59.924 18.276ZM59.924 31.2C59.684 31.2 59.564 31.08 59.564 30.84C59.564 30.6 59.684 30.48 59.924 30.48C60.164 30.48 60.284 30.6 60.284 30.84C60.284 31.08 60.164 31.2 59.924 31.2ZM59.924 32.64C59.684 32.64 59.564 32.52 59.564 32.28C59.564 32.04 59.684 31.92 59.924 31.92C60.164 31.92 60.284 32.04 60.284 32.28C60.284 32.52 60.164 32.64 59.924 32.64ZM61.616 10.644C61.376 10.644 61.256 10.524 61.256 10.284C61.256 10.044 61.376 9.924 61.616 9.924C61.856 9.924 61.976 10.044 61.976 10.284C61.976 10.524 61.856 10.644 61.616 10.644ZM62.336 11.832C62.096 11.832 61.976 11.712 61.976 11.472C61.976 11.232 62.096 11.112 62.336 11.112C62.576 11.112 62.696 11.232 62.696 11.472C62.696 11.712 62.576 11.832 62.336 11.832ZM63.092 13.056C62.852 13.056 62.732 12.936 62.732 12.696C62.732 12.456 62.852 12.336 63.092 12.336C63.332 12.336 63.452 12.456 63.452 12.696C63.452 12.936 63.332 13.056 63.092 13.056ZM60.86 9.42C60.62 9.42 60.5 9.3 60.5 9.06C60.5 8.82 60.62 8.7 60.86 8.7C61.1 8.7 61.22 8.82 61.22 9.06C61.22 9.3 61.1 9.42 60.86 9.42ZM64.568 15.504C64.328 15.504 64.208 15.384 64.208 15.144C64.208 14.904 64.328 14.784 64.568 14.784C64.808 14.784 64.928 14.904 64.928 15.144C64.928 15.384 64.808 15.504 64.568 15.504ZM65.288 16.692C65.048 16.692 64.928 16.572 64.928 16.332C64.928 16.092 65.048 15.972 65.288 15.972C65.528 15.972 65.648 16.092 65.648 16.332C65.648 16.572 65.528 16.692 65.288 16.692ZM66.044 17.916C65.804 17.916 65.684 17.796 65.684 17.556C65.684 17.316 65.804 17.196 66.044 17.196C66.284 17.196 66.404 17.316 66.404 17.556C66.404 17.796 66.284 17.916 66.044 17.916ZM66.764 19.14C66.524 19.14 66.404 19.02 66.404 18.78C66.404 18.54 66.524 18.42 66.764 18.42C67.004 18.42 67.124 18.54 67.124 18.78C67.124 19.02 67.004 19.14 66.764 19.14ZM63.812 14.28C63.572 14.28 63.452 14.16 63.452 13.92C63.452 13.68 63.572 13.56 63.812 13.56C64.052 13.56 64.172 13.68 64.172 13.92C64.172 14.16 64.052 14.28 63.812 14.28ZM67.52 20.364C67.28 20.364 67.16 20.244 67.16 20.004C67.16 19.764 67.28 19.644 67.52 19.644C67.76 19.644 67.88 19.764 67.88 20.004C67.88 20.244 67.76 20.364 67.52 20.364ZM68.24 21.552C68 21.552 67.88 21.432 67.88 21.192C67.88 20.952 68 20.832 68.24 20.832C68.48 20.832 68.6 20.952 68.6 21.192C68.6 21.432 68.48 21.552 68.24 21.552ZM68.996 22.776C68.756 22.776 68.636 22.656 68.636 22.416C68.636 22.176 68.756 22.056 68.996 22.056C69.236 22.056 69.356 22.176 69.356 22.416C69.356 22.656 69.236 22.776 68.996 22.776ZM66.764 19.14C66.524 19.14 66.404 19.02 66.404 18.78C66.404 18.54 66.524 18.42 66.764 18.42C67.004 18.42 67.124 18.54 67.124 18.78C67.124 19.02 67.004 19.14 66.764 19.14ZM70.472 25.224C70.232 25.224 70.112 25.104 70.112 24.864C70.112 24.624 70.232 24.504 70.472 24.504C70.712 24.504 70.832 24.624 70.832 24.864C70.832 25.104 70.712 25.224 70.472 25.224ZM71.192 26.412C70.952 26.412 70.832 26.292 70.832 26.052C70.832 25.812 70.952 25.692 71.192 25.692C71.432 25.692 71.552 25.812 71.552 26.052C71.552 26.292 71.432 26.412 71.192 26.412ZM71.948 27.636C71.708 27.636 71.588 27.516 71.588 27.276C71.588 27.036 71.708 26.916 71.948 26.916C72.188 26.916 72.308 27.036 72.308 27.276C72.308 27.516 72.188 27.636 71.948 27.636ZM69.716 24C69.476 24 69.356 23.88 69.356 23.64C69.356 23.4 69.476 23.28 69.716 23.28C69.956 23.28 70.076 23.4 70.076 23.64C70.076 23.88 69.956 24 69.716 24ZM83.972 25.332C83.732 25.332 83.612 25.212 83.612 24.972C83.612 24.732 83.732 24.612 83.972 24.612C84.212 24.612 84.332 24.732 84.332 24.972C84.332 25.212 84.212 25.332 83.972 25.332ZM83.972 26.808C83.732 26.808 83.612 26.688 83.612 26.448C83.612 26.208 83.732 26.088 83.972 26.088C84.212 26.088 84.332 26.208 84.332 26.448C84.332 26.688 84.212 26.808 83.972 26.808ZM83.972 28.284C83.732 28.284 83.612 28.164 83.612 27.924C83.612 27.684 83.732 27.564 83.972 27.564C84.212 27.564 84.332 27.684 84.332 27.924C84.332 28.164 84.212 28.284 83.972 28.284ZM83.972 29.76C83.732 29.76 83.612 29.64 83.612 29.4C83.612 29.16 83.732 29.04 83.972 29.04C84.212 29.04 84.332 29.16 84.332 29.4C84.332 29.64 84.212 29.76 83.972 29.76ZM83.972 13.884C83.732 13.884 83.612 13.764 83.612 13.524C83.612 13.284 83.732 13.164 83.972 13.164C84.212 13.164 84.332 13.284 84.332 13.524C84.332 13.764 84.212 13.884 83.972 13.884ZM83.972 15.288C83.732 15.288 83.612 15.168 83.612 14.928C83.612 14.688 83.732 14.568 83.972 14.568C84.212 14.568 84.332 14.688 84.332 14.928C84.332 15.168 84.212 15.288 83.972 15.288ZM83.972 16.836C83.732 16.836 83.612 16.716 83.612 16.476C83.612 16.236 83.732 16.116 83.972 16.116C84.212 16.116 84.332 16.236 84.332 16.476C84.332 16.716 84.212 16.836 83.972 16.836ZM83.972 19.716C83.732 19.716 83.612 19.596 83.612 19.356C83.612 19.116 83.732 18.996 83.972 18.996C84.212 18.996 84.332 19.116 84.332 19.356C84.332 19.596 84.212 19.716 83.972 19.716ZM83.972 21.048C83.732 21.048 83.612 20.928 83.612 20.688C83.612 20.448 83.732 20.328 83.972 20.328C84.212 20.328 84.332 20.448 84.332 20.688C84.332 20.928 84.212 21.048 83.972 21.048ZM83.972 22.488C83.732 22.488 83.612 22.368 83.612 22.128C83.612 21.888 83.732 21.768 83.972 21.768C84.212 21.768 84.332 21.888 84.332 22.128C84.332 22.368 84.212 22.488 83.972 22.488ZM83.972 23.928C83.732 23.928 83.612 23.808 83.612 23.568C83.612 23.328 83.732 23.208 83.972 23.208C84.212 23.208 84.332 23.328 84.332 23.568C84.332 23.808 84.212 23.928 83.972 23.928ZM83.972 8.34C83.732 8.34 83.612 8.22 83.612 7.98C83.612 7.74 83.732 7.62 83.972 7.62C84.212 7.62 84.332 7.74 84.332 7.98C84.332 8.22 84.212 8.34 83.972 8.34ZM83.972 9.78C83.732 9.78 83.612 9.66 83.612 9.42C83.612 9.18 83.732 9.06 83.972 9.06C84.212 9.06 84.332 9.18 84.332 9.42C84.332 9.66 84.212 9.78 83.972 9.78ZM83.972 11.148C83.732 11.148 83.612 11.028 83.612 10.788C83.612 10.548 83.732 10.428 83.972 10.428C84.212 10.428 84.332 10.548 84.332 10.788C84.332 11.028 84.212 11.148 83.972 11.148ZM83.972 12.444C83.732 12.444 83.612 12.324 83.612 12.084C83.612 11.844 83.732 11.724 83.972 11.724C84.212 11.724 84.332 11.844 84.332 12.084C84.332 12.324 84.212 12.444 83.972 12.444ZM83.972 18.276C83.732 18.276 83.612 18.156 83.612 17.916C83.612 17.676 83.732 17.556 83.972 17.556C84.212 17.556 84.332 17.676 84.332 17.916C84.332 18.156 84.212 18.276 83.972 18.276ZM83.972 31.2C83.732 31.2 83.612 31.08 83.612 30.84C83.612 30.6 83.732 30.48 83.972 30.48C84.212 30.48 84.332 30.6 84.332 30.84C84.332 31.08 84.212 31.2 83.972 31.2ZM83.972 32.64C83.732 32.64 83.612 32.52 83.612 32.28C83.612 32.04 83.732 31.92 83.972 31.92C84.212 31.92 84.332 32.04 84.332 32.28C84.332 32.52 84.212 32.64 83.972 32.64ZM82.28 10.644C82.04 10.644 81.92 10.524 81.92 10.284C81.92 10.044 82.04 9.924 82.28 9.924C82.52 9.924 82.64 10.044 82.64 10.284C82.64 10.524 82.52 10.644 82.28 10.644ZM81.56 11.832C81.32 11.832 81.2 11.712 81.2 11.472C81.2 11.232 81.32 11.112 81.56 11.112C81.8 11.112 81.92 11.232 81.92 11.472C81.92 11.712 81.8 11.832 81.56 11.832ZM80.804 13.056C80.564 13.056 80.444 12.936 80.444 12.696C80.444 12.456 80.564 12.336 80.804 12.336C81.044 12.336 81.164 12.456 81.164 12.696C81.164 12.936 81.044 13.056 80.804 13.056ZM83.036 9.42C82.796 9.42 82.676 9.3 82.676 9.06C82.676 8.82 82.796 8.7 83.036 8.7C83.276 8.7 83.396 8.82 83.396 9.06C83.396 9.3 83.276 9.42 83.036 9.42ZM79.328 15.504C79.088 15.504 78.968 15.384 78.968 15.144C78.968 14.904 79.088 14.784 79.328 14.784C79.568 14.784 79.688 14.904 79.688 15.144C79.688 15.384 79.568 15.504 79.328 15.504ZM78.608 16.692C78.368 16.692 78.248 16.572 78.248 16.332C78.248 16.092 78.368 15.972 78.608 15.972C78.848 15.972 78.968 16.092 78.968 16.332C78.968 16.572 78.848 16.692 78.608 16.692ZM77.852 17.916C77.612 17.916 77.492 17.796 77.492 17.556C77.492 17.316 77.612 17.196 77.852 17.196C78.092 17.196 78.212 17.316 78.212 17.556C78.212 17.796 78.092 17.916 77.852 17.916ZM77.132 19.14C76.892 19.14 76.772 19.02 76.772 18.78C76.772 18.54 76.892 18.42 77.132 18.42C77.372 18.42 77.492 18.54 77.492 18.78C77.492 19.02 77.372 19.14 77.132 19.14ZM80.084 14.28C79.844 14.28 79.724 14.16 79.724 13.92C79.724 13.68 79.844 13.56 80.084 13.56C80.324 13.56 80.444 13.68 80.444 13.92C80.444 14.16 80.324 14.28 80.084 14.28ZM76.376 20.364C76.136 20.364 76.016 20.244 76.016 20.004C76.016 19.764 76.136 19.644 76.376 19.644C76.616 19.644 76.736 19.764 76.736 20.004C76.736 20.244 76.616 20.364 76.376 20.364ZM75.656 21.552C75.416 21.552 75.296 21.432 75.296 21.192C75.296 20.952 75.416 20.832 75.656 20.832C75.896 20.832 76.016 20.952 76.016 21.192C76.016 21.432 75.896 21.552 75.656 21.552ZM74.9 22.776C74.66 22.776 74.54 22.656 74.54 22.416C74.54 22.176 74.66 22.056 74.9 22.056C75.14 22.056 75.26 22.176 75.26 22.416C75.26 22.656 75.14 22.776 74.9 22.776ZM77.132 19.14C76.892 19.14 76.772 19.02 76.772 18.78C76.772 18.54 76.892 18.42 77.132 18.42C77.372 18.42 77.492 18.54 77.492 18.78C77.492 19.02 77.372 19.14 77.132 19.14ZM73.424 25.224C73.184 25.224 73.064 25.104 73.064 24.864C73.064 24.624 73.184 24.504 73.424 24.504C73.664 24.504 73.784 24.624 73.784 24.864C73.784 25.104 73.664 25.224 73.424 25.224ZM72.704 26.412C72.464 26.412 72.344 26.292 72.344 26.052C72.344 25.812 72.464 25.692 72.704 25.692C72.944 25.692 73.064 25.812 73.064 26.052C73.064 26.292 72.944 26.412 72.704 26.412ZM74.18 24C73.94 24 73.82 23.88 73.82 23.64C73.82 23.4 73.94 23.28 74.18 23.28C74.42 23.28 74.54 23.4 74.54 23.64C74.54 23.88 74.42 24 74.18 24ZM95.0516 15.144C94.8116 15.144 94.6916 15.024 94.6916 14.784C94.6916 14.544 94.8116 14.424 95.0516 14.424C95.2916 14.424 95.4116 14.544 95.4116 14.784C95.4116 15.024 95.2916 15.144 95.0516 15.144ZM96.4916 14.892C96.2516 14.892 96.1316 14.772 96.1316 14.532C96.1316 14.292 96.2516 14.172 96.4916 14.172C96.7316 14.172 96.8516 14.292 96.8516 14.532C96.8516 14.772 96.7316 14.892 96.4916 14.892ZM97.9676 14.892C97.7276 14.892 97.6076 14.772 97.6076 14.532C97.6076 14.292 97.7276 14.172 97.9676 14.172C98.2076 14.172 98.3276 14.292 98.3276 14.532C98.3276 14.772 98.2076 14.892 97.9676 14.892ZM99.3716 15.18C99.1316 15.18 99.0116 15.06 99.0116 14.82C99.0116 14.58 99.1316 14.46 99.3716 14.46C99.6116 14.46 99.7316 14.58 99.7316 14.82C99.7316 15.06 99.6116 15.18 99.3716 15.18ZM92.4236 16.224C92.1836 16.224 92.0636 16.104 92.0636 15.864C92.0636 15.624 92.1836 15.504 92.4236 15.504C92.6636 15.504 92.7836 15.624 92.7836 15.864C92.7836 16.104 92.6636 16.224 92.4236 16.224ZM100.668 15.792C100.428 15.792 100.308 15.672 100.308 15.432C100.308 15.192 100.428 15.072 100.668 15.072C100.908 15.072 101.028 15.192 101.028 15.432C101.028 15.672 100.908 15.792 100.668 15.792ZM101.82 16.692C101.58 16.692 101.46 16.572 101.46 16.332C101.46 16.092 101.58 15.972 101.82 15.972C102.06 15.972 102.18 16.092 102.18 16.332C102.18 16.572 102.06 16.692 101.82 16.692ZM102.684 17.88C102.444 17.88 102.324 17.76 102.324 17.52C102.324 17.28 102.444 17.16 102.684 17.16C102.924 17.16 103.044 17.28 103.044 17.52C103.044 17.76 102.924 17.88 102.684 17.88ZM103.26 19.212C103.02 19.212 102.9 19.092 102.9 18.852C102.9 18.612 103.02 18.492 103.26 18.492C103.5 18.492 103.62 18.612 103.62 18.852C103.62 19.092 103.5 19.212 103.26 19.212ZM103.512 20.652C103.272 20.652 103.152 20.532 103.152 20.292C103.152 20.052 103.272 19.932 103.512 19.932C103.752 19.932 103.872 20.052 103.872 20.292C103.872 20.532 103.752 20.652 103.512 20.652ZM103.584 22.092C103.344 22.092 103.224 21.972 103.224 21.732C103.224 21.492 103.344 21.372 103.584 21.372C103.824 21.372 103.944 21.492 103.944 21.732C103.944 21.972 103.824 22.092 103.584 22.092ZM93.4676 23.532C93.2276 23.532 93.1076 23.412 93.1076 23.172C93.1076 22.932 93.2276 22.812 93.4676 22.812C93.7076 22.812 93.8276 22.932 93.8276 23.172C93.8276 23.412 93.7076 23.532 93.4676 23.532ZM94.9076 23.136C94.6676 23.136 94.5476 23.016 94.5476 22.776C94.5476 22.536 94.6676 22.416 94.9076 22.416C95.1476 22.416 95.2676 22.536 95.2676 22.776C95.2676 23.016 95.1476 23.136 94.9076 23.136ZM100.848 23.64C100.608 23.64 100.488 23.52 100.488 23.28C100.488 23.04 100.608 22.92 100.848 22.92C101.088 22.92 101.208 23.04 101.208 23.28C101.208 23.52 101.088 23.64 100.848 23.64ZM102.252 24.18C102.012 24.18 101.892 24.06 101.892 23.82C101.892 23.58 102.012 23.46 102.252 23.46C102.492 23.46 102.612 23.58 102.612 23.82C102.612 24.06 102.492 24.18 102.252 24.18ZM103.548 23.604C103.308 23.604 103.188 23.484 103.188 23.244C103.188 23.004 103.308 22.884 103.548 22.884C103.788 22.884 103.908 23.004 103.908 23.244C103.908 23.484 103.788 23.604 103.548 23.604ZM90.9116 25.08C90.6716 25.08 90.5516 24.96 90.5516 24.72C90.5516 24.48 90.6716 24.36 90.9116 24.36C91.1516 24.36 91.2716 24.48 91.2716 24.72C91.2716 24.96 91.1516 25.08 90.9116 25.08ZM103.548 25.08C103.308 25.08 103.188 24.96 103.188 24.72C103.188 24.48 103.308 24.36 103.548 24.36C103.788 24.36 103.908 24.48 103.908 24.72C103.908 24.96 103.788 25.08 103.548 25.08ZM90.0116 26.52C89.7716 26.52 89.6516 26.4 89.6516 26.16C89.6516 25.92 89.7716 25.8 90.0116 25.8C90.2516 25.8 90.3716 25.92 90.3716 26.16C90.3716 26.4 90.2516 26.52 90.0116 26.52ZM103.548 26.52C103.308 26.52 103.188 26.4 103.188 26.16C103.188 25.92 103.308 25.8 103.548 25.8C103.788 25.8 103.908 25.92 103.908 26.16C103.908 26.4 103.788 26.52 103.548 26.52ZM103.548 27.96C103.308 27.96 103.188 27.84 103.188 27.6C103.188 27.36 103.308 27.24 103.548 27.24C103.788 27.24 103.908 27.36 103.908 27.6C103.908 27.84 103.788 27.96 103.548 27.96ZM90.0116 29.4C89.7716 29.4 89.6516 29.28 89.6516 29.04C89.6516 28.8 89.7716 28.68 90.0116 28.68C90.2516 28.68 90.3716 28.8 90.3716 29.04C90.3716 29.28 90.2516 29.4 90.0116 29.4ZM103.44 29.4C103.2 29.4 103.08 29.28 103.08 29.04C103.08 28.8 103.2 28.68 103.44 28.68C103.68 28.68 103.8 28.8 103.8 29.04C103.8 29.28 103.68 29.4 103.44 29.4ZM90.6236 30.768C90.3836 30.768 90.2636 30.648 90.2636 30.408C90.2636 30.168 90.3836 30.048 90.6236 30.048C90.8636 30.048 90.9836 30.168 90.9836 30.408C90.9836 30.648 90.8636 30.768 90.6236 30.768ZM102.288 30.372C102.048 30.372 101.928 30.252 101.928 30.012C101.928 29.772 102.048 29.652 102.288 29.652C102.528 29.652 102.648 29.772 102.648 30.012C102.648 30.252 102.528 30.372 102.288 30.372ZM103.728 30.84C103.488 30.84 103.368 30.72 103.368 30.48C103.368 30.24 103.488 30.12 103.728 30.12C103.968 30.12 104.088 30.24 104.088 30.48C104.088 30.72 103.968 30.84 103.728 30.84ZM91.5956 31.848C91.3556 31.848 91.2356 31.728 91.2356 31.488C91.2356 31.248 91.3556 31.128 91.5956 31.128C91.8356 31.128 91.9556 31.248 91.9556 31.488C91.9556 31.728 91.8356 31.848 91.5956 31.848ZM99.9476 32.136C99.7076 32.136 99.5876 32.016 99.5876 31.776C99.5876 31.536 99.7076 31.416 99.9476 31.416C100.188 31.416 100.308 31.536 100.308 31.776C100.308 32.016 100.188 32.136 99.9476 32.136ZM101.136 31.416C100.896 31.416 100.776 31.296 100.776 31.056C100.776 30.816 100.896 30.696 101.136 30.696C101.376 30.696 101.496 30.816 101.496 31.056C101.496 31.296 101.376 31.416 101.136 31.416ZM104.196 32.1C103.956 32.1 103.836 31.98 103.836 31.74C103.836 31.5 103.956 31.38 104.196 31.38C104.436 31.38 104.556 31.5 104.556 31.74C104.556 31.98 104.436 32.1 104.196 32.1ZM93.7196 15.612C93.4796 15.612 93.3596 15.492 93.3596 15.252C93.3596 15.012 93.4796 14.892 93.7196 14.892C93.9596 14.892 94.0796 15.012 94.0796 15.252C94.0796 15.492 93.9596 15.612 93.7196 15.612ZM91.1996 16.98C90.9596 16.98 90.8396 16.86 90.8396 16.62C90.8396 16.38 90.9596 16.26 91.1996 16.26C91.4396 16.26 91.5596 16.38 91.5596 16.62C91.5596 16.86 91.4396 16.98 91.1996 16.98ZM105.096 33C104.856 33 104.736 32.88 104.736 32.64C104.736 32.4 104.856 32.28 105.096 32.28C105.336 32.28 105.456 32.4 105.456 32.64C105.456 32.88 105.336 33 105.096 33ZM89.7236 27.96C89.4836 27.96 89.3636 27.84 89.3636 27.6C89.3636 27.36 89.4836 27.24 89.7236 27.24C89.9636 27.24 90.0836 27.36 90.0836 27.6C90.0836 27.84 89.9636 27.96 89.7236 27.96ZM99.3356 23.208C99.0956 23.208 98.9756 23.088 98.9756 22.848C98.9756 22.608 99.0956 22.488 99.3356 22.488C99.5756 22.488 99.6956 22.608 99.6956 22.848C99.6956 23.088 99.5756 23.208 99.3356 23.208ZM97.9316 23.064C97.6916 23.064 97.5716 22.944 97.5716 22.704C97.5716 22.464 97.6916 22.344 97.9316 22.344C98.1716 22.344 98.2916 22.464 98.2916 22.704C98.2916 22.944 98.1716 23.064 97.9316 23.064ZM96.3836 23.028C96.1436 23.028 96.0236 22.908 96.0236 22.668C96.0236 22.428 96.1436 22.308 96.3836 22.308C96.6236 22.308 96.7436 22.428 96.7436 22.668C96.7436 22.908 96.6236 23.028 96.3836 23.028ZM92.0996 24.18C91.8596 24.18 91.7396 24.06 91.7396 23.82C91.7396 23.58 91.8596 23.46 92.0996 23.46C92.3396 23.46 92.4596 23.58 92.4596 23.82C92.4596 24.06 92.3396 24.18 92.0996 24.18ZM92.8196 32.676C92.5796 32.676 92.4596 32.556 92.4596 32.316C92.4596 32.076 92.5796 31.956 92.8196 31.956C93.0596 31.956 93.1796 32.076 93.1796 32.316C93.1796 32.556 93.0596 32.676 92.8196 32.676ZM94.1516 33.108C93.9116 33.108 93.7916 32.988 93.7916 32.748C93.7916 32.508 93.9116 32.388 94.1516 32.388C94.3916 32.388 94.5116 32.508 94.5116 32.748C94.5116 32.988 94.3916 33.108 94.1516 33.108ZM95.5916 33.216C95.3516 33.216 95.2316 33.096 95.2316 32.856C95.2316 32.616 95.3516 32.496 95.5916 32.496C95.8316 32.496 95.9516 32.616 95.9516 32.856C95.9516 33.096 95.8316 33.216 95.5916 33.216ZM97.2116 33.072C96.9716 33.072 96.8516 32.952 96.8516 32.712C96.8516 32.472 96.9716 32.352 97.2116 32.352C97.4516 32.352 97.5716 32.472 97.5716 32.712C97.5716 32.952 97.4516 33.072 97.2116 33.072ZM98.6516 32.712C98.4116 32.712 98.2916 32.592 98.2916 32.352C98.2916 32.112 98.4116 31.992 98.6516 31.992C98.8916 31.992 99.0116 32.112 99.0116 32.352C99.0116 32.592 98.8916 32.712 98.6516 32.712ZM115.837 32.64C115.597 32.64 115.477 32.52 115.477 32.28C115.477 32.04 115.597 31.92 115.837 31.92C116.077 31.92 116.197 32.04 116.197 32.28C116.197 32.52 116.077 32.64 115.837 32.64ZM111.049 24.324C110.809 24.324 110.689 24.204 110.689 23.964C110.689 23.724 110.809 23.604 111.049 23.604C111.289 23.604 111.409 23.724 111.409 23.964C111.409 24.204 111.289 24.324 111.049 24.324ZM111.049 25.764C110.809 25.764 110.689 25.644 110.689 25.404C110.689 25.164 110.809 25.044 111.049 25.044C111.289 25.044 111.409 25.164 111.409 25.404C111.409 25.644 111.289 25.764 111.049 25.764ZM111.049 27.204C110.809 27.204 110.689 27.084 110.689 26.844C110.689 26.604 110.809 26.484 111.049 26.484C111.289 26.484 111.409 26.604 111.409 26.844C111.409 27.084 111.289 27.204 111.049 27.204ZM111.049 28.644C110.809 28.644 110.689 28.524 110.689 28.284C110.689 28.044 110.809 27.924 111.049 27.924C111.289 27.924 111.409 28.044 111.409 28.284C111.409 28.524 111.289 28.644 111.049 28.644ZM111.049 30.084C110.809 30.084 110.689 29.964 110.689 29.724C110.689 29.484 110.809 29.364 111.049 29.364C111.289 29.364 111.409 29.484 111.409 29.724C111.409 29.964 111.289 30.084 111.049 30.084ZM111.265 31.452C111.025 31.452 110.905 31.332 110.905 31.092C110.905 30.852 111.025 30.732 111.265 30.732C111.505 30.732 111.625 30.852 111.625 31.092C111.625 31.332 111.505 31.452 111.265 31.452ZM112.057 32.496C111.817 32.496 111.697 32.376 111.697 32.136C111.697 31.896 111.817 31.776 112.057 31.776C112.297 31.776 112.417 31.896 112.417 32.136C112.417 32.376 112.297 32.496 112.057 32.496ZM111.049 12.948C110.809 12.948 110.689 12.828 110.689 12.588C110.689 12.348 110.809 12.228 111.049 12.228C111.289 12.228 111.409 12.348 111.409 12.588C111.409 12.828 111.289 12.948 111.049 12.948ZM111.049 14.46C110.809 14.46 110.689 14.34 110.689 14.1C110.689 13.86 110.809 13.74 111.049 13.74C111.289 13.74 111.409 13.86 111.409 14.1C111.409 14.34 111.289 14.46 111.049 14.46ZM111.049 15.828C110.809 15.828 110.689 15.708 110.689 15.468C110.689 15.228 110.809 15.108 111.049 15.108C111.289 15.108 111.409 15.228 111.409 15.468C111.409 15.708 111.289 15.828 111.049 15.828ZM111.049 18.708C110.809 18.708 110.689 18.588 110.689 18.348C110.689 18.108 110.809 17.988 111.049 17.988C111.289 17.988 111.409 18.108 111.409 18.348C111.409 18.588 111.289 18.708 111.049 18.708ZM111.049 20.04C110.809 20.04 110.689 19.92 110.689 19.68C110.689 19.44 110.809 19.32 111.049 19.32C111.289 19.32 111.409 19.44 111.409 19.68C111.409 19.92 111.289 20.04 111.049 20.04ZM111.049 21.48C110.809 21.48 110.689 21.36 110.689 21.12C110.689 20.88 110.809 20.76 111.049 20.76C111.289 20.76 111.409 20.88 111.409 21.12C111.409 21.36 111.289 21.48 111.049 21.48ZM111.049 22.92C110.809 22.92 110.689 22.8 110.689 22.56C110.689 22.32 110.809 22.2 111.049 22.2C111.289 22.2 111.409 22.32 111.409 22.56C111.409 22.8 111.289 22.92 111.049 22.92ZM111.049 8.772C110.809 8.772 110.689 8.652 110.689 8.412C110.689 8.172 110.809 8.052 111.049 8.052C111.289 8.052 111.409 8.172 111.409 8.412C111.409 8.652 111.289 8.772 111.049 8.772ZM111.049 10.14C110.809 10.14 110.689 10.02 110.689 9.78C110.689 9.54 110.809 9.42 111.049 9.42C111.289 9.42 111.409 9.54 111.409 9.78C111.409 10.02 111.289 10.14 111.049 10.14ZM111.049 11.508C110.809 11.508 110.689 11.388 110.689 11.148C110.689 10.908 110.809 10.788 111.049 10.788C111.289 10.788 111.409 10.908 111.409 11.148C111.409 11.388 111.289 11.508 111.049 11.508ZM111.049 17.268C110.809 17.268 110.689 17.148 110.689 16.908C110.689 16.668 110.809 16.548 111.049 16.548C111.289 16.548 111.409 16.668 111.409 16.908C111.409 17.148 111.289 17.268 111.049 17.268ZM113.281 32.964C113.041 32.964 112.921 32.844 112.921 32.604C112.921 32.364 113.041 32.244 113.281 32.244C113.521 32.244 113.641 32.364 113.641 32.604C113.641 32.844 113.521 32.964 113.281 32.964ZM114.577 32.964C114.337 32.964 114.217 32.844 114.217 32.604C114.217 32.364 114.337 32.244 114.577 32.244C114.817 32.244 114.937 32.364 114.937 32.604C114.937 32.844 114.817 32.964 114.577 32.964ZM116.989 32.136C116.749 32.136 116.629 32.016 116.629 31.776C116.629 31.536 116.749 31.416 116.989 31.416C117.229 31.416 117.349 31.536 117.349 31.776C117.349 32.016 117.229 32.136 116.989 32.136ZM109.501 15.108C109.261 15.108 109.141 14.988 109.141 14.748C109.141 14.508 109.261 14.388 109.501 14.388C109.741 14.388 109.861 14.508 109.861 14.748C109.861 14.988 109.741 15.108 109.501 15.108ZM108.169 15.108C107.929 15.108 107.809 14.988 107.809 14.748C107.809 14.508 107.929 14.388 108.169 14.388C108.409 14.388 108.529 14.508 108.529 14.748C108.529 14.988 108.409 15.108 108.169 15.108ZM112.417 15.108C112.177 15.108 112.057 14.988 112.057 14.748C112.057 14.508 112.177 14.388 112.417 14.388C112.657 14.388 112.777 14.508 112.777 14.748C112.777 14.988 112.657 15.108 112.417 15.108ZM113.785 15.108C113.545 15.108 113.425 14.988 113.425 14.748C113.425 14.508 113.545 14.388 113.785 14.388C114.025 14.388 114.145 14.508 114.145 14.748C114.145 14.988 114.025 15.108 113.785 15.108ZM115.225 15.108C114.985 15.108 114.865 14.988 114.865 14.748C114.865 14.508 114.985 14.388 115.225 14.388C115.465 14.388 115.585 14.508 115.585 14.748C115.585 14.988 115.465 15.108 115.225 15.108ZM121.261 24.684C121.021 24.684 120.901 24.564 120.901 24.324C120.901 24.084 121.021 23.964 121.261 23.964C121.501 23.964 121.621 24.084 121.621 24.324C121.621 24.564 121.501 24.684 121.261 24.684ZM121.261 26.124C121.021 26.124 120.901 26.004 120.901 25.764C120.901 25.524 121.021 25.404 121.261 25.404C121.501 25.404 121.621 25.524 121.621 25.764C121.621 26.004 121.501 26.124 121.261 26.124ZM121.261 27.564C121.021 27.564 120.901 27.444 120.901 27.204C120.901 26.964 121.021 26.844 121.261 26.844C121.501 26.844 121.621 26.964 121.621 27.204C121.621 27.444 121.501 27.564 121.261 27.564ZM121.261 28.932C121.021 28.932 120.901 28.812 120.901 28.572C120.901 28.332 121.021 28.212 121.261 28.212C121.501 28.212 121.621 28.332 121.621 28.572C121.621 28.812 121.501 28.932 121.261 28.932ZM121.261 30.444C121.021 30.444 120.901 30.324 120.901 30.084C120.901 29.844 121.021 29.724 121.261 29.724C121.501 29.724 121.621 29.844 121.621 30.084C121.621 30.324 121.501 30.444 121.261 30.444ZM121.261 31.74C121.021 31.74 120.901 31.62 120.901 31.38C120.901 31.14 121.021 31.02 121.261 31.02C121.501 31.02 121.621 31.14 121.621 31.38C121.621 31.62 121.501 31.74 121.261 31.74ZM121.261 33C121.021 33 120.901 32.88 120.901 32.64C120.901 32.4 121.021 32.28 121.261 32.28C121.501 32.28 121.621 32.4 121.621 32.64C121.621 32.88 121.501 33 121.261 33ZM121.261 15.36C121.021 15.36 120.901 15.24 120.901 15C120.901 14.76 121.021 14.64 121.261 14.64C121.501 14.64 121.621 14.76 121.621 15C121.621 15.24 121.501 15.36 121.261 15.36ZM121.261 19.068C121.021 19.068 120.901 18.948 120.901 18.708C120.901 18.468 121.021 18.348 121.261 18.348C121.501 18.348 121.621 18.468 121.621 18.708C121.621 18.948 121.501 19.068 121.261 19.068ZM121.261 20.4C121.021 20.4 120.901 20.28 120.901 20.04C120.901 19.8 121.021 19.68 121.261 19.68C121.501 19.68 121.621 19.8 121.621 20.04C121.621 20.28 121.501 20.4 121.261 20.4ZM121.261 21.768C121.021 21.768 120.901 21.648 120.901 21.408C120.901 21.168 121.021 21.048 121.261 21.048C121.501 21.048 121.621 21.168 121.621 21.408C121.621 21.648 121.501 21.768 121.261 21.768ZM121.261 23.208C121.021 23.208 120.901 23.088 120.901 22.848C120.901 22.608 121.021 22.488 121.261 22.488C121.501 22.488 121.621 22.608 121.621 22.848C121.621 23.088 121.501 23.208 121.261 23.208ZM121.261 17.772C121.021 17.772 120.901 17.652 120.901 17.412C120.901 17.172 121.021 17.052 121.261 17.052C121.501 17.052 121.621 17.172 121.621 17.412C121.621 17.652 121.501 17.772 121.261 17.772ZM121.261 16.584C121.021 16.584 120.901 16.464 120.901 16.224C120.901 15.984 121.021 15.864 121.261 15.864C121.501 15.864 121.621 15.984 121.621 16.224C121.621 16.464 121.501 16.584 121.261 16.584ZM134.977 24.684C134.737 24.684 134.617 24.564 134.617 24.324C134.617 24.084 134.737 23.964 134.977 23.964C135.217 23.964 135.337 24.084 135.337 24.324C135.337 24.564 135.217 24.684 134.977 24.684ZM134.977 26.124C134.737 26.124 134.617 26.004 134.617 25.764C134.617 25.524 134.737 25.404 134.977 25.404C135.217 25.404 135.337 25.524 135.337 25.764C135.337 26.004 135.217 26.124 134.977 26.124ZM134.977 27.564C134.737 27.564 134.617 27.444 134.617 27.204C134.617 26.964 134.737 26.844 134.977 26.844C135.217 26.844 135.337 26.964 135.337 27.204C135.337 27.444 135.217 27.564 134.977 27.564ZM134.977 28.932C134.737 28.932 134.617 28.812 134.617 28.572C134.617 28.332 134.737 28.212 134.977 28.212C135.217 28.212 135.337 28.332 135.337 28.572C135.337 28.812 135.217 28.932 134.977 28.932ZM134.977 30.444C134.737 30.444 134.617 30.324 134.617 30.084C134.617 29.844 134.737 29.724 134.977 29.724C135.217 29.724 135.337 29.844 135.337 30.084C135.337 30.324 135.217 30.444 134.977 30.444ZM134.977 31.74C134.737 31.74 134.617 31.62 134.617 31.38C134.617 31.14 134.737 31.02 134.977 31.02C135.217 31.02 135.337 31.14 135.337 31.38C135.337 31.62 135.217 31.74 134.977 31.74ZM134.977 33C134.737 33 134.617 32.88 134.617 32.64C134.617 32.4 134.737 32.28 134.977 32.28C135.217 32.28 135.337 32.4 135.337 32.64C135.337 32.88 135.217 33 134.977 33ZM128.461 15.036C128.221 15.036 128.101 14.916 128.101 14.676C128.101 14.436 128.221 14.316 128.461 14.316C128.701 14.316 128.821 14.436 128.821 14.676C128.821 14.916 128.701 15.036 128.461 15.036ZM130.081 14.892C129.841 14.892 129.721 14.772 129.721 14.532C129.721 14.292 129.841 14.172 130.081 14.172C130.321 14.172 130.441 14.292 130.441 14.532C130.441 14.772 130.321 14.892 130.081 14.892ZM131.629 15.216C131.389 15.216 131.269 15.096 131.269 14.856C131.269 14.616 131.389 14.496 131.629 14.496C131.869 14.496 131.989 14.616 131.989 14.856C131.989 15.096 131.869 15.216 131.629 15.216ZM133.033 16.044C132.793 16.044 132.673 15.924 132.673 15.684C132.673 15.444 132.793 15.324 133.033 15.324C133.273 15.324 133.393 15.444 133.393 15.684C133.393 15.924 133.273 16.044 133.033 16.044ZM133.825 17.052C133.585 17.052 133.465 16.932 133.465 16.692C133.465 16.452 133.585 16.332 133.825 16.332C134.065 16.332 134.185 16.452 134.185 16.692C134.185 16.932 134.065 17.052 133.825 17.052ZM134.617 19.536C134.377 19.536 134.257 19.416 134.257 19.176C134.257 18.936 134.377 18.816 134.617 18.816C134.857 18.816 134.977 18.936 134.977 19.176C134.977 19.416 134.857 19.536 134.617 19.536ZM134.797 20.868C134.557 20.868 134.437 20.748 134.437 20.508C134.437 20.268 134.557 20.148 134.797 20.148C135.037 20.148 135.157 20.268 135.157 20.508C135.157 20.748 135.037 20.868 134.797 20.868ZM134.329 18.276C134.089 18.276 133.969 18.156 133.969 17.916C133.969 17.676 134.089 17.556 134.329 17.556C134.569 17.556 134.689 17.676 134.689 17.916C134.689 18.156 134.569 18.276 134.329 18.276ZM134.977 22.236C134.737 22.236 134.617 22.116 134.617 21.876C134.617 21.636 134.737 21.516 134.977 21.516C135.217 21.516 135.337 21.636 135.337 21.876C135.337 22.116 135.217 22.236 134.977 22.236ZM126.913 15.576C126.673 15.576 126.553 15.456 126.553 15.216C126.553 14.976 126.673 14.856 126.913 14.856C127.153 14.856 127.273 14.976 127.273 15.216C127.273 15.456 127.153 15.576 126.913 15.576ZM134.977 23.352C134.737 23.352 134.617 23.232 134.617 22.992C134.617 22.752 134.737 22.632 134.977 22.632C135.217 22.632 135.337 22.752 135.337 22.992C135.337 23.232 135.217 23.352 134.977 23.352ZM125.509 16.224C125.269 16.224 125.149 16.104 125.149 15.864C125.149 15.624 125.269 15.504 125.509 15.504C125.749 15.504 125.869 15.624 125.869 15.864C125.869 16.104 125.749 16.224 125.509 16.224ZM124.285 17.16C124.045 17.16 123.925 17.04 123.925 16.8C123.925 16.56 124.045 16.44 124.285 16.44C124.525 16.44 124.645 16.56 124.645 16.8C124.645 17.04 124.525 17.16 124.285 17.16ZM123.277 18.312C123.037 18.312 122.917 18.192 122.917 17.952C122.917 17.712 123.037 17.592 123.277 17.592C123.517 17.592 123.637 17.712 123.637 17.952C123.637 18.192 123.517 18.312 123.277 18.312ZM122.377 19.572C122.137 19.572 122.017 19.452 122.017 19.212C122.017 18.972 122.137 18.852 122.377 18.852C122.617 18.852 122.737 18.972 122.737 19.212C122.737 19.452 122.617 19.572 122.377 19.572ZM121.261 12.696C121.021 12.696 120.901 12.576 120.901 12.336C120.901 12.096 121.021 11.976 121.261 11.976C121.501 11.976 121.621 12.096 121.621 12.336C121.621 12.576 121.501 12.696 121.261 12.696ZM121.261 13.956C121.021 13.956 120.901 13.836 120.901 13.596C120.901 13.356 121.021 13.236 121.261 13.236C121.501 13.236 121.621 13.356 121.621 13.596C121.621 13.836 121.501 13.956 121.261 13.956ZM121.261 7.44C121.021 7.44 120.901 7.32 120.901 7.08C120.901 6.84 121.021 6.72 121.261 6.72C121.501 6.72 121.621 6.84 121.621 7.08C121.621 7.32 121.501 7.44 121.261 7.44ZM121.261 8.772C121.021 8.772 120.901 8.652 120.901 8.412C120.901 8.172 121.021 8.052 121.261 8.052C121.501 8.052 121.621 8.172 121.621 8.412C121.621 8.652 121.501 8.772 121.261 8.772ZM121.261 10.032C121.021 10.032 120.901 9.912 120.901 9.672C120.901 9.432 121.021 9.312 121.261 9.312C121.501 9.312 121.621 9.432 121.621 9.672C121.621 9.912 121.501 10.032 121.261 10.032ZM121.261 11.436C121.021 11.436 120.901 11.316 120.901 11.076C120.901 10.836 121.021 10.716 121.261 10.716C121.501 10.716 121.621 10.836 121.621 11.076C121.621 11.316 121.501 11.436 121.261 11.436Z" fill="#114B5F"/>
<g clip-path="url(#clip0_213_2)">
<path d="M38.6096 32.0664C38.9209 32.0664 39.1992 32.1844 39.4043 32.3787L39.4189 32.396C39.613 32.5869 39.7302 32.8471 39.7302 33.1316C39.7302 33.4265 39.6057 33.6902 39.4006 33.8845C39.1992 34.0753 38.9172 34.1968 38.606 34.1968H28.3008C27.9895 34.1968 27.7112 34.0788 27.5061 33.8845C27.3047 33.6937 27.1765 33.4265 27.1765 33.1316C27.1765 32.8401 27.301 32.573 27.5061 32.3822C27.7075 32.1879 27.9895 32.0699 28.2971 32.0699H38.6096V32.0664ZM7.6062 28.0139L7.59155 27.9965C7.38281 27.7918 7.28027 27.5281 7.28027 27.261C7.28027 26.9903 7.39014 26.7197 7.60986 26.5115C7.82959 26.3033 8.11523 26.1993 8.40454 26.1993C8.69385 26.1993 8.97949 26.3033 9.19922 26.5115L12.052 29.2144L14.9048 26.5115C15.1245 26.3033 15.4102 26.1993 15.6995 26.1993C15.9851 26.1993 16.2744 26.3033 16.4941 26.5115C16.7139 26.7197 16.8237 26.9903 16.8237 27.2644C16.8237 27.5351 16.7139 27.8092 16.4941 28.0173L13.6414 30.7202L16.4795 33.4161C16.6992 33.6243 16.8091 33.8949 16.8091 34.169C16.8091 34.4431 16.6992 34.7138 16.4795 34.9219C16.2598 35.1301 15.9741 35.2342 15.6848 35.2342C15.3992 35.2342 15.1099 35.1301 14.8901 34.9219L12.0374 32.2191L9.18457 34.9219C8.96484 35.1301 8.6792 35.2342 8.38989 35.2342C8.10059 35.2342 7.81494 35.1301 7.59521 34.9219L7.58057 34.9046C7.37183 34.6999 7.26929 34.4362 7.26929 34.169C7.26929 33.8984 7.37915 33.6278 7.59888 33.4196L10.4517 30.7167L7.6062 28.0139ZM45 21.0017V38.1071C45 38.631 44.8901 39.1341 44.6887 39.5955C44.48 40.0743 44.1724 40.5011 43.7952 40.862L43.7805 40.8758C43.4033 41.2297 42.9565 41.5142 42.4622 41.7085C41.9788 41.8994 41.4478 42.0035 40.8911 42.0035H4.11255C3.55957 42.0035 3.02856 41.8994 2.5415 41.7085C2.03979 41.5108 1.58569 41.2193 1.20483 40.862C0.823975 40.5046 0.52002 40.0743 0.311279 39.5955C0.109863 39.1306 0 38.6275 0 38.1036V3.89641C0 3.37249 0.109863 2.86939 0.311279 2.40793C0.523682 1.93259 0.827637 1.50235 1.2085 1.14498L1.22314 1.1311C1.60034 0.777199 2.04712 0.492689 2.5415 0.298389C3.02856 0.104089 3.55957 0 4.11255 0H40.8875C41.4404 0 41.9714 0.104089 42.4585 0.294919C42.9602 0.492689 43.4143 0.784139 43.7952 1.14151C44.176 1.49888 44.48 1.92912 44.6887 2.40793C44.8901 2.86592 45 3.36902 45 3.89641V21.0017ZM42.7551 38.1036V22.0634H23.6206V39.8766H40.8875C41.1401 39.8766 41.3818 39.828 41.5979 39.7413C41.825 39.6511 42.0337 39.5192 42.2058 39.3527C42.5464 39.0335 42.7551 38.5893 42.7551 38.1036ZM42.7551 19.9366V3.89641C42.7551 3.657 42.7039 3.428 42.6123 3.2233C42.5171 3.00818 42.3779 2.81041 42.2021 2.64734C42.03 2.48426 41.8213 2.34895 41.5942 2.25874C41.3745 2.17199 41.1365 2.12342 40.8838 2.12342H23.6206V19.9366H42.7551ZM2.24487 3.89641V19.9366H21.3794V2.12689H4.11255C3.85986 2.12689 3.61816 2.17546 3.4021 2.26221C3.17505 2.34895 2.96631 2.48079 2.79419 2.64734C2.45361 2.96654 2.24487 3.41066 2.24487 3.89641ZM2.24487 22.0634V38.1036C2.24487 38.343 2.29614 38.572 2.3877 38.7767C2.48291 38.9918 2.62207 39.1896 2.79785 39.3527C2.96997 39.5157 3.17871 39.6511 3.40576 39.7413C3.62549 39.828 3.86353 39.8766 4.11621 39.8766H21.3831V22.0634H2.24487ZM10.9204 5.87063C10.9204 5.57571 11.0449 5.31202 11.25 5.11772C11.4514 4.92689 11.7334 4.80545 12.0447 4.80545C12.356 4.80545 12.6343 4.92342 12.8394 5.11772C13.0408 5.30855 13.1689 5.57571 13.1689 5.87063V9.69071H17.2009C17.5122 9.69071 17.7905 9.80867 17.9956 10.003C18.197 10.1938 18.3252 10.461 18.3252 10.7559C18.3252 11.0508 18.2007 11.3145 17.9956 11.5088C17.7942 11.6996 17.5122 11.8211 17.2009 11.8211H13.1653V15.6411C13.1653 15.9361 13.0408 16.1998 12.8357 16.3941C12.6343 16.5849 12.3523 16.7063 12.041 16.7063C11.7297 16.7063 11.4514 16.5884 11.2463 16.3941C11.0449 16.2032 10.9167 15.9361 10.9167 15.6411V11.8176H6.88843C6.57715 11.8176 6.29883 11.6996 6.09375 11.5053C5.89233 11.3145 5.76416 11.0473 5.76416 10.7524C5.76416 10.4575 5.88867 10.1938 6.09375 9.9995C6.29883 9.8052 6.57715 9.68724 6.88843 9.68724H10.9204V5.87063ZM38.6096 9.69071C38.9209 9.69071 39.1992 9.80867 39.4043 10.003C39.6057 10.1938 39.7339 10.461 39.7339 10.7559C39.7339 11.0508 39.6094 11.3145 39.4043 11.5088C39.2029 11.6996 38.9209 11.8211 38.6096 11.8211H28.3008C27.9895 11.8211 27.7112 11.7031 27.5061 11.5088C27.3047 11.318 27.1765 11.0508 27.1765 10.7559C27.1765 10.461 27.301 10.1973 27.5061 10.003C27.7075 9.81214 27.9895 9.69071 28.3008 9.69071H38.6096ZM38.6096 27.4171C38.9209 27.4171 39.1992 27.5351 39.4043 27.7294L39.4189 27.7467C39.613 27.9375 39.7302 28.1978 39.7302 28.4823C39.7302 28.7772 39.6057 29.0409 39.4006 29.2352C39.1992 29.426 38.9172 29.5475 38.606 29.5475H28.3008C27.9895 29.5475 27.7112 29.4295 27.5061 29.2352C27.3047 29.0444 27.1765 28.7772 27.1765 28.4823C27.1765 28.1908 27.301 27.9237 27.5061 27.7328C27.7075 27.5385 27.9895 27.4206 28.2971 27.4206H38.6096V27.4171Z" fill="#114B5F"/>
</g>
<defs>
<clipPath id="clip0_213_2">
<rect width="45" height="42" fill="white"/>
</clipPath>
</defs>
</svg>
