<?xml version="1.0" encoding="UTF-8" standalone="no"?>
<svg
   data-name="Layer 1"
   width="869.99994"
   height="520.13854"
   viewBox="0 0 869.99994 520.13854"
   version="1.1"
   id="svg52"
   sodipodi:docname="undraw_login.svg"
   inkscape:version="1.1.1 (3bf5ae0d25, 2021-09-20)"
   xmlns:inkscape="http://www.inkscape.org/namespaces/inkscape"
   xmlns:sodipodi="http://sodipodi.sourceforge.net/DTD/sodipodi-0.dtd"
   xmlns="http://www.w3.org/2000/svg"
   xmlns:svg="http://www.w3.org/2000/svg">
  <defs
     id="defs56" />
  <sodipodi:namedview
     id="namedview54"
     pagecolor="#ffffff"
     bordercolor="#666666"
     borderopacity="1.0"
     inkscape:pageshadow="2"
     inkscape:pageopacity="0.0"
     inkscape:pagecheckerboard="0"
     showgrid="false"
     inkscape:zoom="1.0747137"
     inkscape:cx="443.37392"
     inkscape:cy="340.55583"
     inkscape:window-width="1366"
     inkscape:window-height="704"
     inkscape:window-x="0"
     inkscape:window-y="27"
     inkscape:window-maximized="1"
     inkscape:current-layer="svg52" />
  <path
     d="m 203.90756,514.25664 3.84671,3.41352 A -240.45181,240.45181 0 0 1 43.300507,481.69307 c -15.06863,-9.80508 -29.45033,-21.85728 -37.25663,-38.05184 -10.5967,-21.98362 -6.89209998,-49.82099 8.2379,-68.96911 15.1301,-19.14812 40.67275,-29.15664 64.93275,-26.50671 24.260003,2.64993 46.644733,17.46242 59.568803,38.16357 14.27325,22.86219 17.01899,50.83339 19.40179,77.67976 4.32963,-13.92475 20.57905,-22.43304 34.83378,-19.3594 14.25473,3.07364 25.24403,16.37965 27.01831,30.85364 1.77428,14.47399 -4.99132,29.34186 -16.12965,38.75366 z"
     fill="#f2f2f2"
     id="path2" />
  <path
     d="m 38.272097,356.0788 c -2.26555,-1.84481 -5.51992,1.37539 -3.23555,3.23554 A -392.34209,392.34209 0 0 1 150.43802,514.93151 c 1.09958,2.69458 5.5243,1.50842 4.4123,-1.21642 A -394.561,394.561 0 0 0 93.098317,410.52109 -393.41394,393.41394 0 0 0 38.272097,356.0788 Z"
     fill="#ffffff"
     id="path4" />
  <path
     d="m 584.6494,516.38789 c 77.93818,11.46989 159.84776,-6.44924 225.8773,-49.41454 20.69667,-13.46729 40.4501,-30.02098 51.17195,-52.26422 14.55458,-30.1945 9.4664,-68.42909 -11.31476,-94.72909 -20.78116,-26.3 -55.864,-40.04668 -89.18511,-36.407 -33.32111,3.63968 -64.06655,23.98468 -81.81777,52.41768 -19.60431,31.40122 -23.37559,69.81968 -26.64837,106.69317 -5.94675,-19.12565 -28.26533,-30.81175 -47.8442,-26.59014 -19.57887,4.22161 -34.67274,22.49747 -37.10966,42.37749 -2.43692,19.88002 6.85558,40.30105 22.15408,53.22817"
     fill="#f2f2f2"
     id="path6" />
  <path
     d="m 817.43322,294.44208 2e-5,3e-5 c 3.11168,-2.53388 7.58159,1.88908 4.444,4.444 a -538.44066,538.44066 0 0 0 -43.76626,39.81484 -539.73411,539.73411 0 0 0 -65.72875,81.19837 -536.35952,536.35952 0 0 0 -49.009,92.727 c -1.51031,3.70094 -7.58757,2.07182 -6.06031,-1.67075 a -545.835,545.835 0 0 1 25.43041,-53.8463 -548.0761,548.0761 0 0 1 59.38606,-87.89068 -540.35491,540.35491 0 0 1 75.30383,-74.77651 z"
     fill="#ffffff"
     id="path8" />
  <path
     d="M 245.49998,519 V 144.5 C 245.49998,64.82227 310.32224,0 389.99973,0 h 76.00049 c 79.67749,0 144.49976,64.82227 144.49976,144.5 V 519 Z"
     fill="#f2f2f2"
     id="path10" />
  <path
     d="M 321.49998,519 V 144.5 A -143.38227,143.38227 0 0 1 349.0969,59.55426 c 0.6626,-0.90332 1.32471,-1.79639 2.00537,-2.67676 a -144.305,144.305 0 0 1 12.72437,-14.55078 -145.987,145.987 0 0 1 18.38354,-15.564 c 0.66235,-0.47167 1.33472,-0.94335 2.00635,-1.40478 A -143.79947,143.79947 0 0 1 415.32298,9.14212 c 0.66279,-0.25098 1.33569,-0.50195 2.00879,-0.74268 a -143.995,143.995 0 0 1 31.10034,-7.335 c 0.66552,-0.0908 1.34082,-0.16113 2.01416,-0.23144 a -146.28769,146.28769 0 0 1 31.10547,0 c 0.6753,0.0703 1.35058,0.14062 2.0083,0.23047 a -144.01979,144.01979 0 0 1 31.1084,7.33593 c 0.67285,0.24073 1.3457,0.4917 2.00659,0.74219 a -144.15958,144.15958 0 0 1 31.47216,16.459 c 0.67215,0.47168 1.33448,0.94334 1.99415,1.42334 a -144.46633,144.46633 0 0 1 30.75415,29.85058 c 0.68286,0.8833 1.34497,1.77637 2.00878,2.68115 A -143.38177,143.38177 0 0 1 610.49998,144.5 V 519 Z"
     fill="#cccccc"
     id="path12" />
  <circle
     cx="-345"
     cy="335.5"
     r="16"
     fill="#1a936f"
     id="circle14"
     transform="scale(-1,1)" />
  <polygon
     points="582.339,507.783 576.506,460.495 594.601,460.496 594.599,507.783 "
     fill="#ffb8b8"
     id="polygon16"
     transform="matrix(-1,0,0,1,869.99995,0)" />
  <path
     d="m 296.4183,504.27982 -10e-6,-10e-6 a -14.88688,14.88688 0 0 1 14.88688,14.88688 v 0 h -38.53071 v -14.88687 z"
     fill="#2f2e41"
     id="path18" />
  <polygon
     points="643.339,507.783 637.506,460.495 655.601,460.496 655.599,507.783 "
     fill="#ffb8b8"
     id="polygon20"
     transform="matrix(-1,0,0,1,869.99995,0)" />
  <path
     d="m 235.4183,504.27982 -10e-6,-10e-6 a -14.88688,14.88688 0 0 1 14.88688,14.88688 v 0 h -38.53071 v -14.88687 z"
     fill="#2f2e41"
     id="path22" />
  <path
     d="m 336.9024,338.66962 a -10.80091,10.80091 0 0 1 -19.10866,-9.74764 l -47.58476,-109.77071 20.50713,-11.19139 41.67577,114.86667 a -10.74272,10.74272 0 0 1 4.51052,15.84307 z"
     fill="#ffb8b8"
     id="path24" />
  <path
     d="m 220.66354,360.25357 v 4e-5 a -10.80091,10.80091 0 0 1 -12.89962,-17.13934 l 5.36567,-119.52048 23.33776,-1.06622 -12.91076,121.50941 a -10.74269,10.74269 0 0 1 -2.89305,16.21659 z"
     fill="#ffb8b8"
     id="path26" />
  <circle
     cx="-257.89417"
     cy="162.12254"
     r="24.561029"
     fill="#ffb8b8"
     id="circle28"
     transform="scale(-1,1)" />
  <path
     d="m 220.8204,332.61864 -7.65306,-101.29049 a -28.23448,28.23448 0 0 1 9.45947,-23.396 c 22.31248,-19.38037 48.74827,-11.39453 62.52,-4.90918 h 2.5e-4 a -11.813,11.813 0 0 1 6.06933,14.5835 c -9.63501,27.997 3.42871,113.57467 3.56177,114.436 l 0.0891,0.57617 z"
     fill="#1a936f"
     id="path30" />
  <path
     d="m 280.64559,258.25047 -9.39526,-36.79543 a -13.99723,13.99723 0 0 1 27.10571,-6.99755 l 15.62622,37.02978 z"
     fill="#1a936f"
     id="path32" />
  <path
     d="m 237.94955,270.80809 -33.11455,-7.78857 7.533,-42.92774 c 1.52661,-8.6997 8.95288,-14.68945 16.55835,-13.35986 7.60327,1.33447 12.54712,9.49853 11.02735,18.13476 z"
     fill="#1a936f"
     id="path34" />
  <path
     d="m 223.28392,327.1186 71,5 c 8.61328,37.28473 3.37744,93.97028 -2,160 l -18,1 -16,-122 -29,120 -16,2 c -3.21436,-62.9306 -1.91455,-120.62329 10,-166 z"
     fill="#2f2e41"
     id="path36" />
  <path
     d="m 241.71088,181.10401 c -3.74167,-3.98568 -8.80875,-10.04487 -10.29345,-15.00492 -2.44069,-8.15381 -1.97104,-17.52857 2.90917,-24.50174 4.01299,-5.73402 10.47958,-9.24619 17.00067,-11.78753 5.73937,-2.2367 11.84465,-3.89855 17.99229,-3.51145 6.14764,0.3871 12.37284,3.07302 15.92336,8.10661 2.91136,4.12745 3.17589,10.91321 -1.24686,13.35269 -3.97507,2.19256 -10.31382,0.21758 -12.45388,4.22116 -1.62145,3.03338 0.86235,7.30651 -1.25065,10.02051 -3.44593,4.42616 -12.01696,-2.65004 -15.6682,2.23929 a -4.59046,4.59046 0 0 0 -0.84011,2.14892 c -0.40874,3.11854 1.29761,5.80003 1.60587,8.7536 a -8.05467,8.05467 0 0 1 0.0101,1.55569 c -0.59704,6.66784 -9.10635,9.28796 -13.68835,4.40717 z"
     fill="#2f2e41"
     id="path38" />
  <path
     d="m 30.018377,519.64344 a -1.19069,1.19069 0 0 1 0,-2.38137 H 768.31235 a -1.19069,1.19069 0 0 1 0,2.38137 z"
     fill="#3f3d56"
     id="path40" />
  <path
     d="m 400.99998,410.5 a -6.46539,6.46539 0 0 1 -6.5,-6.41531 V 113.91527 a -6.46539,6.46539 0 0 1 6.5,-6.41531 h 130 a -6.46539,6.46539 0 0 1 6.5,6.41531 v 290.16942 a -6.46539,6.46539 0 0 1 -6.5,6.41531 z"
     fill="#ffffff"
     id="path42" />
  <rect
     x="-537.5"
     y="201.38965"
     width="143"
     height="2"
     fill="#cccccc"
     id="rect44"
     transform="scale(-1,1)" />
  <rect
     x="-537"
     y="315.5"
     width="143"
     height="2"
     fill="#cccccc"
     id="rect46"
     transform="scale(-1,1)" />
  <rect
     x="-492.5"
     y="107.5"
     width="2"
     height="304"
     fill="#cccccc"
     id="rect48"
     transform="scale(-1,1)" />
  <rect
     x="-442.5"
     y="107.5"
     width="2"
     height="304"
     fill="#cccccc"
     id="rect50"
     transform="scale(-1,1)" />
</svg>
