<svg width="297" height="286" viewBox="0 0 297 286" fill="none" xmlns="http://www.w3.org/2000/svg">
<path d="M281.458 266.503C281.458 277.27 218.452 286 140.729 286C63.0057 286 0 277.27 0 266.503C0 258.881 31.5823 252.277 77.6097 249.074C96.59 247.749 118.035 247.007 140.729 247.007C150.058 247.007 159.173 247.132 167.989 247.371C232.666 249.132 281.458 257.027 281.458 266.503Z" fill="#3F3D56"/>
<path opacity="0.1" d="M122.57 270.486C152.406 270.486 176.592 267.765 176.592 264.407C176.592 261.049 152.406 258.327 122.57 258.327C92.7349 258.327 68.5486 261.049 68.5486 264.407C68.5486 267.765 92.7349 270.486 122.57 270.486Z" fill="black"/>
<path d="M122.343 268.809C150.549 268.809 173.414 246.283 173.414 218.495C173.414 190.707 150.549 168.181 122.343 168.181C94.1376 168.181 71.2724 190.707 71.2724 218.495C71.2724 246.283 94.1376 268.809 122.343 268.809Z" fill="#3F3D56"/>
<path d="M138.459 248.264H106.682V275.099H138.459V248.264Z" fill="#1A936F"/>
<path d="M179.997 254.763L178.181 263.988L189.984 265.665L197.701 261.472L197.247 254.763H179.997Z" fill="#575A89"/>
<path d="M120.528 81.5985C120.528 81.5985 119.62 91.2421 117.35 91.6614C115.08 92.0807 122.343 108.852 122.343 108.852H133.239L141.864 106.756L137.778 97.5314C137.778 97.5314 132.331 90.8228 136.416 85.3721C140.502 79.9214 120.528 81.5985 120.528 81.5985Z" fill="#A0616A"/>
<path opacity="0.1" d="M120.528 81.5985C120.528 81.5985 119.62 91.2421 117.35 91.6614C115.08 92.0807 122.343 108.852 122.343 108.852H133.239L141.864 106.756L137.778 97.5314C137.778 97.5314 132.331 90.8228 136.416 85.3721C140.502 79.9214 120.528 81.5985 120.528 81.5985Z" fill="black"/>
<path d="M97.8293 155.393C97.8293 155.393 86.0262 176.357 95.5595 180.55C105.093 184.743 107.363 184.323 107.363 185.581C107.363 186.839 105.547 186.42 106.455 188.516C107.363 190.613 104.639 198.998 107.363 204.03C110.086 209.061 109.178 212.835 109.178 212.835C109.178 212.835 109.178 213.254 110.086 214.931C110.994 216.608 111.448 217.866 110.994 218.705C110.54 219.543 107.817 224.994 110.54 226.252C113.264 227.51 127.337 228.348 128.699 226.252C130.061 224.155 127.337 222.898 128.699 221.64C130.061 220.382 130.969 219.963 130.061 219.124C129.153 218.285 128.245 207.803 128.245 207.803C128.245 207.803 130.515 195.644 129.607 193.967C128.699 192.29 127.337 190.613 128.245 189.355C129.153 188.097 130.061 188.516 130.515 186.839C130.969 185.162 131.877 181.388 131.877 181.388L136.87 180.969L148.673 183.066C148.673 183.066 161.838 196.483 176.365 200.675C176.365 200.675 180.451 204.449 181.813 204.449C183.175 204.449 183.175 204.449 182.721 205.288C182.267 206.126 180.905 206.126 181.813 206.965C182.721 207.803 184.082 206.545 183.175 207.803C182.267 209.061 181.359 209.061 182.267 209.9C183.175 210.738 181.813 215.35 181.813 215.77C181.813 216.189 177.727 255.602 179.089 256.44C180.451 257.279 199.517 259.795 200.879 256.44C202.241 253.086 199.971 248.893 199.971 248.893C199.971 248.893 206.781 198.579 204.965 195.225C203.149 191.87 196.793 176.776 162.746 167.133C162.746 167.133 153.213 165.456 153.213 164.198C153.213 162.94 152.305 154.973 150.489 154.554C148.673 154.135 138.232 153.716 138.232 153.716L125.067 157.489L106.909 154.554L97.8293 155.393Z" fill="#2F2E41"/>
<path d="M113.718 225.833L111.448 233.38C111.448 233.38 109.632 245.539 111.902 248.474C113.685 250.779 116.868 253.602 122.772 254.098C124.427 254.238 126.083 253.852 127.469 253.004C128.854 252.157 129.884 250.898 130.389 249.436C130.457 249.261 130.499 249.079 130.515 248.893C130.515 248.055 129.153 237.992 129.153 237.992L126.883 227.51L126.429 224.575L113.718 225.833Z" fill="#2F2E41"/>
<path d="M179.997 261.891C179.997 261.891 177.727 259.795 177.273 261.891C176.819 263.988 175.003 272.792 178.181 273.212C181.359 273.631 211.774 277.824 214.952 276.147C218.13 274.47 224.031 271.954 220.4 270.696C216.768 269.438 206.327 265.665 206.327 265.665C206.327 265.665 200.425 258.537 199.517 258.118C198.609 257.698 193.616 258.537 191.346 260.214C189.076 261.891 179.997 261.891 179.997 261.891Z" fill="#2F2E41"/>
<path d="M131.423 90.4035C139.195 90.4035 145.496 84.5842 145.496 77.4057C145.496 70.2272 139.195 64.4079 131.423 64.4079C123.65 64.4079 117.35 70.2272 117.35 77.4057C117.35 84.5842 123.65 90.4035 131.423 90.4035Z" fill="#A0616A"/>
<path d="M130.061 106.756L124.613 101.305L118.575 90.4035C118.575 90.4035 114.172 89.1457 113.264 91.2421C112.356 93.3385 96.0135 100.047 96.0135 100.047C96.0135 100.047 100.099 135.267 98.2833 138.621C96.4674 141.976 93.2897 155.393 96.0135 156.651C98.7372 157.908 111.448 156.651 115.534 158.328C119.62 160.005 131.423 160.005 134.6 157.908C137.778 155.812 138.686 154.135 141.864 155.393C144.569 156.464 150.894 119.854 152.714 108.944C152.868 108.028 152.74 107.09 152.347 106.237C151.953 105.384 151.308 104.65 150.486 104.118C146.413 101.479 139.077 96.9317 137.778 97.5314C135.962 98.37 130.061 106.756 130.061 106.756Z" fill="#575A89"/>
<path d="M149.581 105.079C150.647 105.325 151.606 105.866 152.329 106.63C153.052 107.395 153.505 108.345 153.626 109.353L157.299 139.879C157.299 139.879 148.219 157.908 143.68 145.749C139.14 133.59 149.581 105.079 149.581 105.079Z" fill="#575A89"/>
<path d="M148.673 142.814L158.66 140.298C158.66 140.298 160.476 152.038 162.292 152.038C164.108 152.038 155.937 158.747 151.851 157.908C147.765 157.07 141.864 154.135 141.41 152.038C140.956 149.942 145.496 141.137 145.496 141.137L148.673 142.814Z" fill="#575A89"/>
<path d="M120.799 83.0128C121.756 81.0639 121.59 78.7907 122.381 76.7795C122.805 75.7025 123.492 74.7306 124.39 73.9397C125.287 73.1487 126.371 72.5601 127.555 72.2199C128.74 71.8797 129.994 71.7971 131.219 71.9785C132.444 72.1599 133.607 72.6004 134.617 73.2656C135.634 73.9357 136.655 74.8774 137.897 74.7494C139.235 74.6116 140.428 73.2333 141.658 73.7384C143.021 74.2983 142.653 76.5547 144.034 77.0758C144.761 77.3502 145.62 76.9278 146.039 76.3145C146.406 75.6701 146.605 74.9559 146.623 74.2281C146.813 72.4398 146.985 70.5472 146.146 68.9263C145.792 68.3769 145.485 67.8036 145.225 67.2114C145.078 66.6584 145.019 66.0886 145.05 65.5199C145.042 63.4179 144.876 61.2255 143.731 59.4091C142.46 57.3936 140.111 56.1047 137.66 55.5424C135.209 54.98 132.641 55.0662 130.125 55.263C125.965 55.5882 121.627 56.2854 118.35 58.6739C117.904 58.9744 117.521 59.3464 117.218 59.7722C116.93 60.278 116.727 60.821 116.615 61.3829C115.906 64.0479 114.844 66.6218 113.452 69.0462C112.782 70.074 112.235 71.1656 111.82 72.3021C111.472 73.457 111.496 74.7732 112.223 75.7658C112.815 76.5739 113.762 77.0046 114.506 77.6653C115.243 78.32 115.588 79.5791 116.405 80.0748C117.118 80.5076 117.972 80.2021 118.699 80.6608C119.632 81.2497 119.7 82.541 120.799 83.0128Z" fill="#2F2E41"/>
<path d="M132.331 113.045L133.692 110.529C133.692 110.529 153.667 115.98 157.753 121.011C157.753 121.011 167.74 115.141 173.187 115.98L178.635 116.818L161.838 130.655L140.502 128.978L132.331 113.045Z" fill="#F2F2F2"/>
<path d="M131.423 110.529L112.81 134.428L139.594 146.588C139.594 146.588 142.098 147.846 144.024 146.588L161.838 139.041L178.635 116.818L161.838 124.785C161.838 124.785 160.022 121.431 156.391 123.108L131.423 110.529Z" fill="#1A936F"/>
<path d="M160.022 152.877L163.654 144.072C163.654 144.072 171.825 134.428 167.286 129.816C162.746 125.204 157.753 143.233 157.753 143.233L160.022 152.877Z" fill="#A0616A"/>
<path d="M118.12 151.472L126.045 145.538C126.045 145.538 138.352 140.983 136.93 134.889C135.509 128.796 121.395 142.078 121.395 142.078L118.12 151.472Z" fill="#A0616A"/>
<path opacity="0.1" d="M98.5102 109.062H98.0563C98.0563 109.062 91.0198 101.305 89.6579 111.787C88.296 122.269 83.7564 157.07 95.5595 158.328C107.363 159.586 115.761 153.087 115.761 153.087C115.761 153.087 124.386 140.927 121.208 140.927C119.671 140.927 115.489 140.29 111.675 140.508C107.606 140.741 103.95 141.8 104.185 140.718C104.639 138.621 111.221 111.997 98.5102 109.062Z" fill="black"/>
<path d="M97.8293 100.886L96.0134 100.047C96.0134 100.047 88.75 101.305 87.3881 111.787C86.0262 122.269 81.4866 157.07 93.2897 158.328C105.093 159.586 120.982 156.651 120.982 156.651C120.982 156.651 124.159 140.718 120.982 140.718C117.804 140.718 101.461 142.814 101.915 140.718C102.369 138.621 110.54 103.821 97.8293 100.886Z" fill="#575A89"/>
<path d="M153.44 148.055L158.446 140.969L161.611 152.668L153.44 156.022V148.055Z" fill="#575A89"/>
<path d="M50.6048 47.0075C57.3742 47.0075 62.8619 41.9391 62.8619 35.6868C62.8619 29.4346 57.3742 24.3661 50.6048 24.3661C43.8354 24.3661 38.3478 29.4346 38.3478 35.6868C38.3478 41.9391 43.8354 47.0075 50.6048 47.0075Z" fill="#F2F2F2"/>
<path d="M65.1317 119.963H36.0779V146.797H65.1317V119.963Z" fill="#F2F2F2"/>
<path d="M168.875 0L176.228 11.7639L183.582 23.5278H168.875H154.168L161.521 11.7639L168.875 0Z" fill="#F2F2F2"/>
<path d="M297 70.5359C296.824 75.5549 295.501 79.5777 293.03 82.6044C290.559 85.6315 287.623 87.1451 284.222 87.1454C281.453 87.1454 279.025 85.6641 276.94 82.7016C274.854 79.7391 273.811 75.182 273.811 69.0304C273.811 67.6706 273.846 66.3755 273.916 65.1451C273.986 63.915 274.074 62.7495 274.179 61.6484L276.02 45.6703H263.873C261.77 65.8736 260.043 77.8936 258.694 81.7303C257.344 85.5669 255.056 87.4853 251.832 87.4854C250.376 87.4523 248.987 86.9149 247.94 85.9799C247.334 85.4832 246.854 84.8684 246.536 84.1797C246.217 83.491 246.069 82.7456 246.1 81.9974C246.1 80.5086 247.371 78.4284 249.912 75.7567C252.454 73.0856 253.865 70.6492 254.145 68.4476L257.3 45.6703H252.2C250.762 45.6782 249.347 46.0028 248.072 46.6172C246.899 47.115 245.878 47.8743 245.101 48.827L242.84 51.9352H240.999C242.717 47.0141 244.829 43.3151 247.336 40.838C249.842 38.3611 252.725 37.1227 255.986 37.1227H296.159V45.6703H282.592C282.172 49.5555 281.847 53.4408 281.62 57.326C281.391 61.2112 281.277 65.1127 281.278 69.0304C281.278 71.6855 281.944 73.8386 283.276 75.4896C284.608 77.1409 286.273 77.9665 288.271 77.9664C289.498 77.9664 290.786 77.505 292.136 76.5822C292.777 76.167 293.313 75.6287 293.708 75.0042C294.103 74.3797 294.347 73.6839 294.424 72.9642C294.529 72.2523 294.608 71.6938 294.66 71.2887C294.713 70.8842 294.739 70.6333 294.739 70.5359L297 70.5359Z" fill="#1A936F"/>
<path opacity="0.1" d="M297 70.5359C296.824 75.5549 295.501 79.5777 293.03 82.6044C290.559 85.6315 287.623 87.1451 284.222 87.1454C281.453 87.1454 279.025 85.6641 276.94 82.7016C274.854 79.7391 273.811 75.182 273.811 69.0304C273.811 67.6706 273.846 66.3755 273.916 65.1451C273.986 63.915 274.074 62.7495 274.179 61.6484L276.02 45.6703H263.873C261.77 65.8736 260.043 77.8936 258.694 81.7303C257.344 85.5669 255.056 87.4853 251.832 87.4854C250.376 87.4523 248.987 86.9149 247.94 85.9799C247.334 85.4832 246.854 84.8684 246.536 84.1797C246.217 83.491 246.069 82.7456 246.1 81.9974C246.1 80.5086 247.371 78.4284 249.912 75.7567C252.454 73.0856 253.865 70.6492 254.145 68.4476L257.3 45.6703H252.2C250.762 45.6782 249.347 46.0028 248.072 46.6172C246.899 47.115 245.878 47.8743 245.101 48.827L242.84 51.9352H240.999C242.717 47.0141 244.829 43.3151 247.336 40.838C249.842 38.3611 252.725 37.1227 255.986 37.1227H296.159V45.6703H282.592C282.172 49.5555 281.847 53.4408 281.62 57.326C281.391 61.2112 281.277 65.1127 281.278 69.0304C281.278 71.6855 281.944 73.8386 283.276 75.4896C284.608 77.1409 286.273 77.9665 288.271 77.9664C289.498 77.9664 290.786 77.505 292.136 76.5822C292.777 76.167 293.313 75.6287 293.708 75.0042C294.103 74.3797 294.347 73.6839 294.424 72.9642C294.529 72.2523 294.608 71.6938 294.66 71.2887C294.713 70.8842 294.739 70.6333 294.739 70.5359L297 70.5359Z" fill="black"/>
<path d="M297 69.0185C296.824 74.0375 295.501 78.0603 293.03 81.087C290.559 84.1141 287.623 85.6277 284.222 85.628C281.453 85.628 279.025 84.1467 276.94 81.1842C274.854 78.2217 273.811 73.6646 273.811 67.513C273.811 66.1532 273.846 64.8581 273.916 63.6277C273.986 62.3976 274.074 61.2321 274.179 60.131L276.02 44.1529H263.873C261.77 64.3562 260.043 76.3762 258.694 80.2129C257.344 84.0495 255.056 85.9679 251.832 85.968C250.376 85.9349 248.987 85.3975 247.94 84.4625C247.334 83.9659 246.854 83.351 246.536 82.6623C246.217 81.9736 246.069 81.2282 246.1 80.48C246.1 78.9912 247.371 76.911 249.912 74.2393C252.454 71.5682 253.865 69.1318 254.145 66.9302L257.3 44.1529H252.2C250.762 44.1608 249.347 44.4855 248.072 45.0999C246.899 45.5976 245.878 46.3569 245.101 47.3096L242.84 50.4178H240.999C242.717 45.4967 244.829 41.7977 247.336 39.3206C249.842 36.8437 252.725 35.6053 255.986 35.6053H296.159V44.1529H282.592C282.172 48.0381 281.847 51.9234 281.62 55.8086C281.391 59.6939 281.277 63.5953 281.278 67.513C281.278 70.1682 281.944 72.3213 283.276 73.9723C284.608 75.6235 286.273 76.4491 288.271 76.4491C289.498 76.4491 290.786 75.9877 292.136 75.0649C292.777 74.6496 293.313 74.1113 293.708 73.4868C294.103 72.8624 294.347 72.1665 294.424 71.4468C294.529 70.735 294.608 70.1765 294.66 69.7713C294.713 69.3668 294.739 69.1159 294.739 69.0185H297Z" fill="#1A936F"/>
</svg>
